<svg xmlns="http://www.w3.org/2000/svg" width="120" height="120" id="indonesia">
  <g fill="#fff" transform="translate(11.25 -917.303)scale(.975)">
    <circle cx="50" cy="1002.362" r="61.538" fill="#50b748"></circle>
    <path fill="#109a32" fill-rule="evenodd" d="M110.356 1014.295a61.538 61.538 0 0 0 .467-3.086l-14.119-11.847c-.047-.04-.105-.062-.158-.093-.038-.021-.07-.05-.11-.066a.99.99 0 0 0-.379-.078c-.578 0-1.058.48-1.058 1.058 0 .135.031.261.078.38.006.015.01.029.017.043.02.047.058.082.086.126.051.081.103.16.174.224.011.01.016.026.028.036l3.858 3.237c-.015.073-.042.14-.042.217 0 .153.035.295.092.424.02.043.052.075.076.115a.98.98 0 0 0 .167.214c.01.01.014.026.026.036l10.797 9.06zm-.847 3.44a61.538 61.538 0 0 0 .803-3.147 61.538 61.538 0 0 0 .032-.21L92.5 999.406c-.053-.045-.118-.073-.18-.106-.036-.02-.067-.047-.106-.063a1.028 1.028 0 0 0-.389-.08c-.578 0-1.025.48-1.025 1.058 0 .13.028.253.07.369.007.02.011.04.02.06.018.043.052.074.076.114.052.088.108.17.182.238.012.012.017.03.03.04l3.844 3.225c-.005.042-.024.078-.024.12 0 .135.031.262.078.381.006.014.01.028.017.042.02.048.058.083.086.127.051.08.103.16.174.224.011.01.016.026.028.036l3.848 3.23c-.008.054-.032.102-.032.16 0 .13.028.252.07.368.007.02.012.04.02.06.019.043.053.074.076.114.052.088.108.17.183.239.012.01.017.029.03.04l9.932 8.333zm-21.677 33.133a61.538 61.538 0 0 0 .42-.3 61.538 61.538 0 0 0 4.622-4.061 61.538 61.538 0 0 0 4.193-4.501 61.538 61.538 0 0 0 3.722-4.896 61.538 61.538 0 0 0 3.215-5.244 61.538 61.538 0 0 0 2.676-5.54 61.538 61.538 0 0 0 2.11-5.779 61.538 61.538 0 0 0 .684-2.684l-16.953-14.225c-.063-.053-.141-.086-.216-.124-.029-.014-.052-.036-.082-.048a1.084 1.084 0 0 0-.397-.078c-.289 0-.545.112-.729.297a1.016 1.016 0 0 0-.282.655l-10.846-9.101c-.053-.045-.118-.072-.18-.106-.036-.02-.067-.047-.106-.062a1.028 1.028 0 0 0-.389-.08c-.566 0-1.033.463-1.051 1.025l-10.818-9.076c-.057-.048-.128-.077-.194-.112-.037-.02-.068-.05-.108-.065a1.09 1.09 0 0 0-.393-.074c-.578 0-1.058.448-1.058 1.026 0 .135.031.261.079.38l.016.043c.02.047.058.082.086.126.051.081.103.16.174.224.011.01.016.026.028.036l3.864 3.243c-.002.03-.016.053-.016.083 0 .13.028.252.07.368.008.02.012.04.02.06.019.043.053.075.076.114.053.088.109.17.183.239.012.011.017.03.03.04l8.207 6.887c-.15.183-.252.406-.252.657 0 .135.03.261.078.38l.016.043c.02.047.058.082.086.126.051.081.103.16.174.224.011.01.016.026.028.036l3.848 3.23c-.006.038-.02.073-.022.114l-10.841-9.097c-.054-.045-.119-.072-.18-.106-.037-.02-.068-.046-.107-.062a1.028 1.028 0 0 0-.388-.08c-.578 0-1.026.48-1.026 1.057 0 .154.035.296.092.425.02.043.052.075.076.114a.98.98 0 0 0 .167.215c.01.01.014.026.026.036l3.838 3.22-.004.02c-.002.018-.009.034-.01.05l-10.83-9.086c-.056-.047-.127-.077-.194-.112-.037-.02-.068-.048-.108-.064a1.09 1.09 0 0 0-.393-.074c-.577 0-1.057.448-1.057 1.026 0 .134.03.261.078.38l.016.042c.021.048.058.083.086.126.052.082.103.16.174.225.012.01.017.026.028.036l8.256 6.927c-.145.183-.24.408-.24.661 0 .13.027.253.07.369.007.02.011.04.02.06.018.043.052.074.075.114.053.088.109.17.183.238.012.012.017.03.03.04l3.824 3.21c-.006.032-.018.062-.02.096l-10.847-9.103c-.054-.045-.12-.072-.18-.106-.037-.02-.068-.046-.107-.062a1.028 1.028 0 0 0-.389-.08c-.577 0-1.057.48-1.057 1.057 0 .137.03.263.078.381.004.011.007.023.012.034.02.045.058.077.084.118.05.077.098.153.166.215.01.008.013.02.022.028l3.839 3.22c-.01.058-.035.11-.035.171 0 .135.031.262.079.38l.016.043c.02.047.058.082.086.126.051.081.103.16.174.224.011.01.016.026.028.036l3.874 3.252c-.004.029-.014.055-.016.086L59.04 995.27c-.054-.045-.119-.072-.18-.106-.037-.02-.068-.046-.107-.062a1.028 1.028 0 0 0-.388-.08c-.434 0-.795.27-.948.649a1.095 1.095 0 0 0-.068.36l-10.851-9.104c-.049-.041-.11-.065-.166-.096-.04-.023-.074-.052-.117-.069a1.046 1.046 0 0 0-.382-.074c-.578 0-1.058.448-1.058 1.026 0 .135.031.261.078.38l.016.043c.021.047.059.082.086.126.052.081.104.16.175.224.01.01.016.026.028.036l3.836 3.22c-.004.036-.02.068-.02.106 0 .13.028.252.07.368.007.02.012.04.02.06.018.043.052.075.076.114.052.088.108.17.182.239.013.011.018.03.03.04l3.828 3.213c-.013.066-.04.127-.04.196 0 .137.03.263.079.381.004.011.007.023.012.034.02.045.057.077.084.118.05.077.098.153.166.215.009.008.013.02.022.028l3.864 3.243c-.003.024-.012.047-.014.072l-10.855-9.109c-.049-.04-.11-.065-.166-.096-.04-.022-.074-.051-.117-.068a1.046 1.046 0 0 0-.382-.074c-.578 0-1.058.448-1.058 1.026 0 .134.031.261.078.38l.016.042c.021.048.059.083.086.126.052.082.104.16.175.225.01.01.016.026.028.036l8.245 6.917v.002c-.068.08-.137.162-.178.26-.043.1-.057.211-.067.323l-10.829-9.087c-.057-.047-.128-.077-.194-.112-.038-.02-.068-.048-.108-.064a1.09 1.09 0 0 0-.393-.074c-.578 0-1.058.448-1.058 1.026 0 .134.031.261.078.38l.016.042c.022.048.059.083.087.126.051.082.103.16.174.225.011.01.016.026.028.036l3.854 3.235c-.012.063-.038.12-.038.186 0 .137.03.263.078.381.005.011.007.023.012.034.02.045.058.077.084.118.05.077.098.153.167.215.008.008.012.02.022.028l8.263 6.935c-.016.018-.027.04-.042.06L38.13 991.074c-.056-.047-.127-.077-.194-.112-.037-.02-.068-.048-.108-.064a1.09 1.09 0 0 0-.393-.074c-.578 0-1.057.448-1.057 1.026 0 .134.03.261.078.38l.016.042c.02.048.058.083.086.126.052.082.103.16.174.225.011.01.016.026.028.036l3.854 3.235c-.005.028-.015.055-.018.084l-10.851-9.104c-.053-.045-.119-.073-.18-.107-.037-.02-.068-.046-.106-.062a1.028 1.028 0 0 0-.39-.08c-.577 0-1.025.48-1.025 1.058 0 .13.029.253.07.369.008.02.012.04.02.06.019.043.053.074.077.114.052.088.108.17.182.238.012.012.017.03.03.04l8.221 6.9a1.04 1.04 0 0 0-.266.676c0 .137.03.263.078.381.004.011.007.023.012.034.02.045.057.077.084.118.05.077.098.153.166.215.01.008.013.02.022.028l3.866 3.245c0 .006-.003.012-.004.018l-10.857-9.11c-.053-.046-.119-.073-.18-.107-.037-.02-.068-.046-.106-.062a1.028 1.028 0 0 0-.39-.08c-.577 0-1.025.48-1.025 1.058 0 .13.029.252.07.368.008.02.012.04.02.06.019.043.053.075.077.114.052.088.108.17.182.239.012.011.017.03.03.04l3.834 3.217c-.007.03-.014.058-.018.088-.004.03-.017.057-.018.088l-10.851-9.104c-.05-.041-.11-.065-.167-.096-.04-.023-.073-.052-.116-.069a1.046 1.046 0 0 0-.382-.074c-.578 0-1.058.448-1.058 1.026 0 .135.03.261.078.38l.016.043c.021.047.058.082.086.126.052.081.103.16.174.224.012.01.017.026.028.036l8.222 6.897a1.009 1.009 0 0 0-.207.595c0 .13.029.253.07.369.008.02.012.04.02.06.019.043.053.074.077.114.052.088.108.17.182.239.012.01.017.029.03.04l3.828 3.213c-.013.066-.04.127-.04.196 0 .135.03.262.078.38l.016.043c.021.047.059.082.086.126.052.081.104.16.175.224.01.01.016.026.028.036l3.822 3.207c-.012.062-.038.118-.038.183 0 .134.03.261.078.38l.016.042c.02.048.058.083.086.127.052.08.103.16.174.224.011.01.016.026.028.036l12.847 10.78-.012.001c-.006.003-.01.01-.016.012l-19.834-16.642c-.053-.045-.119-.073-.18-.106-.037-.02-.068-.047-.106-.063a1.028 1.028 0 0 0-.39-.08c-.577 0-1.025.48-1.025 1.058 0 .153.035.295.092.425.019.041.05.071.075.11.049.08.1.157.17.22.01.01.014.024.024.032l59.427 49.866zm-13.245 7.826a61.538 61.538 0 0 0 2.115-.947l-.509-.427c.003-.02.01-.038.012-.058l.551.46a61.538 61.538 0 0 0 1.156-.516 61.538 61.538 0 0 0 5.337-3.06 61.538 61.538 0 0 0 2.736-1.958l-3.055-2.562c.107.08.227.136.359.172l2.778 2.332a61.538 61.538 0 0 0 1.753-1.254l-41.34-34.687c-.047-.04-.105-.062-.158-.093-.038-.021-.07-.05-.11-.066-.042-.017-.087-.022-.13-.034L21.37 995.261c-.054-.045-.12-.073-.183-.106-.032-.017-.059-.042-.094-.056a1.075 1.075 0 0 0-1.134.22c-.192.184-.312.44-.312.73 0 .134.03.26.078.38l.016.042c.021.047.058.083.086.126.052.081.103.16.174.225.012.01.017.026.028.036l18.057 15.152c-.046-.035-.1-.06-.152-.088-.037-.02-.067-.047-.106-.062l-.026-.01-24.816-20.822c-.046-.039-.105-.062-.158-.092-.038-.021-.07-.05-.11-.066a.99.99 0 0 0-.379-.078c-.433 0-.811.27-.973.649-.05.115-.072.242-.076.373L.422 982.695c-.046-.04-.105-.062-.158-.092-.038-.022-.07-.05-.11-.066a.99.99 0 0 0-.379-.078c-.578 0-1.058.48-1.058 1.057 0 .136.03.263.079.38.004.012.007.024.012.035.02.045.057.077.084.118.05.077.098.153.166.214.009.008.013.02.022.029l3.872 3.249c-.01.058-.036.112-.036.174 0 .135.031.261.078.38l.016.043c.021.047.059.082.086.126.052.081.104.16.175.224.011.01.016.026.028.036l3.836 3.22c-.004.036-.02.068-.02.106 0 .13.028.252.07.368.007.02.012.04.02.06.018.043.052.075.076.114.052.088.108.17.182.239.013.011.018.03.03.04l3.825 3.209c-.008.043-.027.083-.028.128 0 .007-.004.013-.005.02l-10.845-9.1c-.049-.041-.11-.065-.166-.096-.04-.023-.073-.052-.116-.069a1.046 1.046 0 0 0-.383-.074c-.578 0-1.058.448-1.058 1.026 0 .135.031.261.079.38l.016.043c.02.047.058.082.086.126.051.081.103.16.174.224.011.01.016.026.028.036l3.838 3.221c-.004.036-.022.068-.022.105 0 .134.031.261.078.38l.016.042c.021.048.059.083.086.126.052.082.104.16.175.225.011.01.016.026.028.036l3.848 3.229c-.009.054-.032.103-.032.16 0 .13.028.253.07.369.007.02.012.04.02.06.018.043.052.074.076.114.052.088.108.17.182.239.013.01.018.029.03.04l3.823 3.207c-.005.026-.014.05-.016.078L.422 991.028c-.046-.039-.105-.062-.158-.092-.038-.021-.07-.05-.11-.066a.99.99 0 0 0-.379-.078c-.578 0-1.058.48-1.058 1.058 0 .134.031.261.079.38l.016.042c.02.048.058.083.086.126.051.082.103.16.174.225.011.01.016.026.028.036l3.85 3.229v.002c-.009.054-.034.102-.034.158 0 .135.031.262.078.38.006.015.01.03.016.043.021.047.059.083.086.126.052.081.104.16.175.225.011.01.016.026.028.036l3.846 3.227c-.009.055-.03.105-.03.162 0 .154.035.296.092.425.019.043.052.074.076.114a.98.98 0 0 0 .166.214c.011.01.015.027.026.036l3.845 3.225c-.012.062-.039.119-.039.185 0 .134.031.261.079.38l.016.042c.02.048.058.083.086.127.051.08.103.16.174.224.011.01.016.026.028.036l3.842 3.223c-.006.046-.026.087-.026.134 0 .154.035.296.092.425.02.043.052.075.076.114a.98.98 0 0 0 .167.215c.01.01.014.026.026.036l58.746 49.292zm-2.77 1.184a61.538 61.538 0 0 0 .482-.16 61.538 61.538 0 0 0 1.677-.751l-60.99-51.176c-.046-.039-.105-.062-.158-.092-.038-.022-.07-.05-.11-.066a.99.99 0 0 0-.379-.078c-.578 0-1.058.48-1.058 1.057 0 .137.03.263.079.381.004.011.007.023.012.034.02.045.057.077.084.118.05.077.098.153.166.215.009.008.013.02.022.028l60.172 50.49z"></path>
    <path fill-rule="evenodd" d="M-.224 982.458c-.578 0-1.058.48-1.058 1.058 0 .578.48 1.026 1.058 1.026.578 0 1.025-.448 1.025-1.026 0-.578-.447-1.058-1.025-1.058zm29.295 4.167c-.578 0-1.026.48-1.026 1.058 0 .577.448 1.057 1.026 1.057.577 0 1.057-.48 1.057-1.057 0-.578-.48-1.058-1.057-1.058zm-29.295.064c-.578 0-1.058.448-1.058 1.026 0 .578.48 1.057 1.058 1.057.578 0 1.025-.48 1.025-1.057 0-.578-.447-1.026-1.025-1.026zm4.198 0c-.578 0-1.057.448-1.057 1.026 0 .578.48 1.057 1.057 1.057.578 0 1.026-.48 1.026-1.057 0-.578-.448-1.026-1.026-1.026zm16.731 0c-.578 0-1.058.448-1.058 1.026 0 .578.48 1.057 1.058 1.057.578 0 1.026-.48 1.026-1.057 0-.578-.448-1.026-1.026-1.026zm25.128 0c-.578 0-1.057.448-1.057 1.026 0 .578.48 1.057 1.057 1.057.578 0 1.026-.48 1.026-1.057 0-.578-.448-1.026-1.026-1.026zm20.898 0c-.578 0-1.058.448-1.058 1.026 0 .578.48 1.057 1.058 1.057.578 0 1.057-.48 1.057-1.057 0-.578-.48-1.026-1.057-1.026zm-37.66 4.07c-.578 0-1.026.48-1.026 1.058 0 .578.448 1.058 1.026 1.058.577 0 1.057-.48 1.057-1.058 0-.578-.48-1.058-1.057-1.058zm-29.295.032c-.578 0-1.058.48-1.058 1.058 0 .578.48 1.058 1.058 1.058.578 0 1.025-.48 1.025-1.058 0-.578-.447-1.058-1.025-1.058zm4.198 0c-.578 0-1.057.48-1.057 1.058 0 .578.48 1.058 1.057 1.058.578 0 1.026-.48 1.026-1.058 0-.578-.448-1.058-1.026-1.058zm4.167 0c-.578 0-1.026.48-1.026 1.058 0 .578.448 1.058 1.026 1.058.578 0 1.058-.48 1.058-1.058 0-.578-.48-1.058-1.058-1.058zm4.199 0c-.578 0-1.058.48-1.058 1.058 0 .578.48 1.058 1.058 1.058.578 0 1.025-.48 1.025-1.058 0-.578-.447-1.058-1.025-1.058zm25.096.033c-.578 0-1.058.447-1.058 1.025 0 .578.48 1.058 1.058 1.058.578 0 1.058-.48 1.058-1.058 0-.578-.48-1.025-1.058-1.025zm4.199 0c-.578 0-1.058.447-1.058 1.025 0 .578.48 1.058 1.058 1.058.578 0 1.057-.48 1.057-1.058 0-.578-.48-1.025-1.057-1.025zm4.198 0c-.578 0-1.057.447-1.057 1.025 0 .578.48 1.058 1.057 1.058.578 0 1.026-.48 1.026-1.058 0-.578-.448-1.025-1.026-1.025zm4.167 0c-.578 0-1.026.447-1.026 1.025 0 .578.448 1.058 1.026 1.058.578 0 1.058-.48 1.058-1.058 0-.578-.48-1.025-1.058-1.025zm12.564 0c-.578 0-1.058.447-1.058 1.025 0 .578.48 1.058 1.058 1.058.578 0 1.058-.48 1.058-1.058 0-.578-.48-1.025-1.058-1.025zm8.365 0c-.577 0-1.025.447-1.025 1.025 0 .578.448 1.058 1.025 1.058.578 0 1.058-.48 1.058-1.058 0-.578-.48-1.025-1.058-1.025zm-41.858 4.166c-.578 0-1.026.448-1.026 1.026 0 .578.448 1.058 1.026 1.058.577 0 1.057-.48 1.057-1.058 0-.578-.48-1.026-1.057-1.026zm50.224 0c-.578 0-1.058.48-1.058 1.058 0 .578.48 1.026 1.058 1.026.578 0 1.058-.448 1.058-1.026 0-.578-.48-1.058-1.058-1.058zm-75.32.032c-.579 0-1.058.448-1.058 1.026 0 .578.48 1.058 1.057 1.058.578 0 1.026-.48 1.026-1.058 0-.578-.448-1.026-1.026-1.026zm4.166 0c-.578 0-1.026.448-1.026 1.026 0 .578.448 1.058 1.026 1.058.578 0 1.058-.48 1.058-1.058 0-.578-.48-1.026-1.058-1.026zm4.199 0c-.578 0-1.058.448-1.058 1.026 0 .578.48 1.058 1.058 1.058.578 0 1.025-.48 1.025-1.058 0-.578-.447-1.026-1.025-1.026zm4.166 0c-.577 0-1.025.448-1.025 1.026 0 .578.448 1.058 1.025 1.058.578 0 1.058-.48 1.058-1.058 0-.578-.48-1.026-1.058-1.026zm4.2 0c-.579 0-1.059.448-1.059 1.026 0 .578.48 1.058 1.058 1.058.578 0 1.026-.48 1.026-1.058 0-.578-.448-1.026-1.026-1.026zm12.563 0c-.578 0-1.057.48-1.057 1.058 0 .578.48 1.026 1.057 1.026.578 0 1.058-.448 1.058-1.026 0-.578-.48-1.058-1.058-1.058zm4.167 0c-.578 0-1.058.48-1.058 1.058 0 .578.48 1.026 1.058 1.026.578 0 1.058-.448 1.058-1.026 0-.578-.48-1.058-1.058-1.058zm4.199 0c-.578 0-1.058.48-1.058 1.058 0 .578.48 1.026 1.058 1.026.578 0 1.057-.448 1.057-1.026 0-.578-.48-1.058-1.057-1.058zm4.198 0c-.578 0-1.057.48-1.057 1.058 0 .578.48 1.026 1.057 1.026.578 0 1.026-.448 1.026-1.026 0-.578-.448-1.058-1.026-1.058zm8.366 0c-.578 0-1.058.48-1.058 1.058 0 .578.48 1.026 1.058 1.026.578 0 1.025-.448 1.025-1.026 0-.578-.447-1.058-1.025-1.058zm4.166 0c-.578 0-1.025.48-1.025 1.058 0 .578.447 1.026 1.025 1.026.578 0 1.058-.448 1.058-1.026 0-.578-.48-1.058-1.058-1.058zm4.2 0c-.579 0-1.059.48-1.059 1.058 0 .578.48 1.026 1.058 1.026.578 0 1.058-.448 1.058-1.026 0-.578-.48-1.058-1.058-1.058zm8.364 0c-.577 0-1.025.48-1.025 1.058 0 .578.448 1.026 1.025 1.026.578 0 1.058-.448 1.058-1.026 0-.578-.48-1.058-1.058-1.058zm25.129 4.103c-.578 0-1.058.48-1.058 1.058 0 .577.48 1.057 1.058 1.057.578 0 1.025-.48 1.025-1.057 0-.578-.447-1.058-1.025-1.058zm-66.987.032c-.578 0-1.026.48-1.026 1.058 0 .577.448 1.025 1.026 1.025.577 0 1.057-.448 1.057-1.025 0-.578-.48-1.058-1.057-1.058zm50.224 0c-.578 0-1.058.48-1.058 1.058 0 .577.48 1.057 1.058 1.057.578 0 1.058-.48 1.058-1.057 0-.578-.48-1.058-1.058-1.058zm4.167 0c-.578 0-1.026.48-1.026 1.058 0 .577.448 1.057 1.026 1.057.577 0 1.057-.48 1.057-1.057 0-.578-.48-1.058-1.057-1.058zm8.365 0c-.578 0-1.026.48-1.026 1.058 0 .577.448 1.057 1.026 1.057.578 0 1.058-.48 1.058-1.057 0-.578-.48-1.058-1.058-1.058zm-83.686.032c-.578 0-1.026.48-1.026 1.058 0 .578.448 1.025 1.026 1.025.578 0 1.058-.447 1.058-1.025 0-.578-.48-1.058-1.058-1.058zm4.199 0c-.578 0-1.058.48-1.058 1.058 0 .578.48 1.025 1.058 1.025.578 0 1.025-.447 1.025-1.025 0-.578-.447-1.058-1.025-1.058zm4.166 0c-.577 0-1.025.48-1.025 1.058 0 .578.448 1.025 1.025 1.025.578 0 1.058-.447 1.058-1.025 0-.578-.48-1.058-1.058-1.058zm4.2 0c-.579 0-1.059.48-1.059 1.058 0 .578.48 1.025 1.058 1.025.578 0 1.026-.447 1.026-1.025 0-.578-.448-1.058-1.026-1.058zm12.563 0c-.578 0-1.057.48-1.057 1.058 0 .578.48 1.057 1.057 1.057.578 0 1.058-.48 1.058-1.057 0-.578-.48-1.058-1.058-1.058zm4.167 0c-.578 0-1.058.48-1.058 1.058 0 .578.48 1.057 1.058 1.057.578 0 1.058-.48 1.058-1.057 0-.578-.48-1.058-1.058-1.058zm4.199 0c-.578 0-1.058.48-1.058 1.058 0 .578.48 1.057 1.058 1.057.578 0 1.057-.48 1.057-1.057 0-.578-.48-1.058-1.057-1.058zm4.198 0c-.578 0-1.057.48-1.057 1.058 0 .578.48 1.057 1.057 1.057.578 0 1.026-.48 1.026-1.057 0-.578-.448-1.058-1.026-1.058zm8.366 0c-.578 0-1.058.48-1.058 1.058 0 .578.48 1.057 1.058 1.057.578 0 1.025-.48 1.025-1.057 0-.578-.447-1.058-1.025-1.058zm4.166 0c-.578 0-1.025.48-1.025 1.058 0 .578.447 1.057 1.025 1.057.578 0 1.058-.48 1.058-1.057 0-.578-.48-1.058-1.058-1.058zm4.2 0c-.579 0-1.059.48-1.059 1.058 0 .578.48 1.057 1.058 1.057.578 0 1.058-.48 1.058-1.057 0-.578-.48-1.058-1.058-1.058zm4.166 0c-.578 0-1.058.48-1.058 1.058 0 .578.48 1.057 1.058 1.057.578 0 1.057-.48 1.057-1.057 0-.578-.48-1.058-1.057-1.058zm4.198 0c-.577 0-1.025.48-1.025 1.058 0 .578.448 1.057 1.025 1.057.578 0 1.058-.48 1.058-1.057 0-.578-.48-1.058-1.058-1.058zm4.2 0c-.579 0-1.059.48-1.059 1.058 0 .578.48 1.057 1.058 1.057.578 0 1.026-.48 1.026-1.057 0-.578-.448-1.058-1.026-1.058zm20.929 4.167c-.578 0-1.058.447-1.058 1.025 0 .578.48 1.058 1.058 1.058.578 0 1.025-.48 1.025-1.058 0-.578-.447-1.025-1.025-1.025zm-12.596.032c-.578 0-1.026.447-1.026 1.025 0 .578.448 1.058 1.026 1.058.577 0 1.057-.48 1.057-1.058 0-.578-.48-1.025-1.057-1.025zm4.198 0c-.578 0-1.057.447-1.057 1.025 0 .578.48 1.058 1.057 1.058.578 0 1.058-.48 1.058-1.058 0-.578-.48-1.025-1.058-1.025zm4.167 0c-.578 0-1.026.447-1.026 1.025 0 .578.448 1.058 1.026 1.058.578 0 1.058-.48 1.058-1.058 0-.578-.48-1.025-1.058-1.025zm8.397 0c-.578 0-1.025.48-1.025 1.057 0 .578.447 1.026 1.025 1.026.578 0 1.058-.448 1.058-1.026 0-.578-.48-1.057-1.058-1.057Zm-87.884.032c-.578 0-1.058.447-1.058 1.025 0 .578.48 1.058 1.058 1.058.578 0 1.025-.48 1.025-1.058 0-.578-.447-1.025-1.025-1.025zm4.166 0c-.577 0-1.025.447-1.025 1.025 0 .578.448 1.058 1.025 1.058.578 0 1.058-.48 1.058-1.058 0-.578-.48-1.025-1.058-1.025zm4.2 0c-.579 0-1.059.447-1.059 1.025 0 .578.48 1.058 1.058 1.058.578 0 1.026-.48 1.026-1.058 0-.578-.448-1.025-1.026-1.025zm4.166 0c-.578 0-1.058.447-1.058 1.025 0 .578.48 1.058 1.058 1.058.578 0 1.058-.48 1.058-1.058 0-.578-.48-1.025-1.058-1.025zm12.564 0c-.578 0-1.058.447-1.058 1.025 0 .578.48 1.058 1.058 1.058.578 0 1.058-.48 1.058-1.058 0-.578-.48-1.025-1.058-1.025zm4.199 0c-.578 0-1.058.447-1.058 1.025 0 .578.48 1.058 1.058 1.058.578 0 1.057-.48 1.057-1.058 0-.578-.48-1.025-1.057-1.025zm8.365 0c-.578 0-1.026.447-1.026 1.025 0 .578.448 1.058 1.026 1.058.578 0 1.058-.48 1.058-1.058 0-.578-.48-1.025-1.058-1.025zm4.199 0c-.578 0-1.058.447-1.058 1.025 0 .578.48 1.058 1.058 1.058.578 0 1.025-.48 1.025-1.058 0-.578-.447-1.025-1.025-1.025zm4.166 0c-.578 0-1.025.447-1.025 1.025 0 .578.447 1.058 1.025 1.058.578 0 1.058-.48 1.058-1.058 0-.578-.48-1.025-1.058-1.025zm8.366 0c-.578 0-1.058.447-1.058 1.025 0 .578.48 1.058 1.058 1.058.578 0 1.057-.48 1.057-1.058 0-.578-.48-1.025-1.057-1.025zm4.198 0c-.577 0-1.025.447-1.025 1.025 0 .578.448 1.058 1.025 1.058.578 0 1.058-.48 1.058-1.058 0-.578-.48-1.025-1.058-1.025zm4.2 0c-.579 0-1.059.447-1.059 1.025 0 .578.48 1.058 1.058 1.058.578 0 1.026-.48 1.026-1.058 0-.578-.448-1.025-1.026-1.025zm20.929 4.07c-.578 0-1.058.48-1.058 1.058 0 .578.48 1.058 1.058 1.058.578 0 1.025-.48 1.025-1.058 0-.578-.447-1.058-1.025-1.058zm-12.596.032c-.578 0-1.026.48-1.026 1.058 0 .578.448 1.058 1.026 1.058.577 0 1.057-.48 1.057-1.058 0-.578-.48-1.058-1.057-1.058zm4.198 0c-.578 0-1.057.48-1.057 1.058 0 .578.48 1.058 1.057 1.058.578 0 1.058-.48 1.058-1.058 0-.578-.48-1.058-1.058-1.058zm-75.32.032c-.578 0-1.058.48-1.058 1.058 0 .578.48 1.026 1.058 1.026.578 0 1.025-.448 1.025-1.026 0-.578-.447-1.058-1.025-1.058zm4.166 0c-.577 0-1.025.48-1.025 1.058 0 .578.448 1.026 1.025 1.026.578 0 1.058-.448 1.058-1.026 0-.578-.48-1.058-1.058-1.058zm4.2 0c-.579 0-1.059.48-1.059 1.058 0 .578.48 1.026 1.058 1.026.578 0 1.026-.448 1.026-1.026 0-.578-.448-1.058-1.026-1.058zm33.493 0c-.578 0-1.058.48-1.058 1.058 0 .578.48 1.058 1.058 1.058.578 0 1.025-.48 1.025-1.058 0-.578-.447-1.058-1.025-1.058zm4.166 0c-.578 0-1.025.48-1.025 1.058 0 .578.447 1.058 1.025 1.058.578 0 1.058-.48 1.058-1.058 0-.578-.48-1.058-1.058-1.058zm4.2 0c-.579 0-1.059.48-1.059 1.058 0 .578.48 1.058 1.058 1.058.578 0 1.058-.48 1.058-1.058 0-.578-.48-1.058-1.058-1.058zm37.66 0c-.579 0-1.026.448-1.026 1.026 0 .578.447 1.058 1.025 1.058.578 0 1.058-.48 1.058-1.058 0-.578-.48-1.026-1.058-1.026zm-71.154 4.167c-.578 0-1.026.48-1.026 1.058 0 .578.448 1.057 1.026 1.057.577 0 1.057-.48 1.057-1.057 0-.578-.48-1.058-1.057-1.058zm66.987 0c-.578 0-1.058.448-1.058 1.026 0 .578.48 1.057 1.058 1.057.578 0 1.025-.48 1.025-1.057 0-.578-.447-1.026-1.025-1.026zm-16.763.032c-.578 0-1.058.48-1.058 1.058 0 .578.48 1.025 1.058 1.025.578 0 1.058-.447 1.058-1.025 0-.578-.48-1.058-1.058-1.058zm20.93 0c-.579 0-1.026.48-1.026 1.058 0 .578.447 1.025 1.025 1.025.578 0 1.058-.447 1.058-1.025 0-.578-.48-1.058-1.058-1.058zm-75.353.032c-.578 0-1.058.448-1.058 1.026 0 .578.48 1.057 1.058 1.057.578 0 1.058-.48 1.058-1.057 0-.578-.48-1.026-1.058-1.026zm8.397 0c-.578 0-1.057.448-1.057 1.026 0 .578.48 1.057 1.057 1.057.578 0 1.058-.48 1.058-1.057 0-.578-.48-1.026-1.058-1.026zm4.167 0c-.578 0-1.058.448-1.058 1.026 0 .578.48 1.057 1.058 1.057.578 0 1.058-.48 1.058-1.057 0-.578-.48-1.026-1.058-1.026zm16.763 0c-.578 0-1.058.448-1.058 1.026 0 .578.48 1.057 1.058 1.057.578 0 1.025-.48 1.025-1.057 0-.578-.447-1.026-1.025-1.026zm12.532 0c-.578 0-1.058.448-1.058 1.026 0 .578.48 1.057 1.058 1.057.578 0 1.057-.48 1.057-1.057 0-.578-.48-1.026-1.057-1.026zm4.198 0c-.577 0-1.025.448-1.025 1.026 0 .578.448 1.057 1.025 1.057.578 0 1.058-.48 1.058-1.057 0-.578-.48-1.026-1.058-1.026zm4.2 0c-.579 0-1.059.448-1.059 1.026 0 .578.48 1.057 1.058 1.057.578 0 1.026-.48 1.026-1.057 0-.578-.448-1.026-1.026-1.026zm25.095 4.135c-.578 0-1.025.48-1.025 1.057 0 .578.447 1.058 1.025 1.058.578 0 1.058-.48 1.058-1.058 0-.578-.48-1.057-1.058-1.057zm-58.59.032c-.577 0-1.057.48-1.057 1.057 0 .578.48 1.026 1.058 1.026.578 0 1.057-.448 1.057-1.026 0-.578-.48-1.057-1.057-1.057zm4.2 0c-.579 0-1.058.48-1.058 1.057 0 .578.48 1.026 1.057 1.026.578 0 1.026-.448 1.026-1.026 0-.578-.448-1.057-1.026-1.057zm4.166 0c-.578 0-1.026.48-1.026 1.057 0 .578.448 1.026 1.026 1.026.578 0 1.058-.448 1.058-1.026 0-.578-.48-1.057-1.058-1.057Zm4.199 0c-.578 0-1.058.48-1.058 1.057 0 .578.48 1.026 1.058 1.026.578 0 1.025-.448 1.025-1.026 0-.578-.447-1.057-1.025-1.057zm4.166 0c-.578 0-1.025.48-1.025 1.057 0 .578.447 1.026 1.025 1.026.578 0 1.058-.448 1.058-1.026 0-.578-.48-1.057-1.058-1.057zm4.2 0c-.579 0-1.059.48-1.059 1.057 0 .578.48 1.026 1.058 1.026.578 0 1.058-.448 1.058-1.026 0-.578-.48-1.057-1.058-1.057zm-4.2 4.23c-.578 0-1.025.448-1.025 1.026 0 .578.447 1.058 1.025 1.058.578 0 1.058-.48 1.058-1.058 0-.578-.48-1.026-1.058-1.026z"></path>
  </g>
</svg>
