<svg xmlns="http://www.w3.org/2000/svg" viewBox="0 0 64 64" id="athlete">
  <path fill="#ccdde7" d="M51 51v10a1 1 0 0 1-1 1H14a1 1 0 0 1-1-1V51a13.006 13.006 0 0 1 12-12.95c1.66-.02 9.9-.23 14 .05a12.08 12.08 0 0 1 5.99 1.94.01.01 0 0 0 .01.01A12.973 12.973 0 0 1 51 51Z"></path>
  <path d="M45 40.05a12.564 12.564 0 0 0-4-1.69V40a7.008 7.008 0 0 1-7 7v15h13V41.63a12.753 12.753 0 0 0-2-1.58Z" opacity=".1"></path>
  <path fill="#168fd6" d="M45 40.05V62H19V40.05a12.872 12.872 0 0 1 6-2V40a7 7 0 0 0 14 0v-1.9a12.082 12.082 0 0 1 5.99 1.94.01.01 0 0 0 .01.01Z"></path>
  <rect width="16" height="7" x="24" y="53" opacity=".1" rx="1"></rect>
  <rect width="16" height="7" x="24" y="51" fill="#56b5ef" rx="1"></rect>
  <path d="M27 35v7a4.004 4.004 0 0 0 4 4h2a4.004 4.004 0 0 0 4-4v-7Z" opacity=".1"></path>
  <path fill="#ccdde7" d="M27 33v7a4.004 4.004 0 0 0 4 4h2a4.004 4.004 0 0 0 4-4v-7Z"></path>
  <path d="M37 33v4.16a14.175 14.175 0 0 1-10 0V33Z" opacity=".1"></path>
  <path fill="#044388" d="M46.15 17.89a2 2 0 0 1-4 0 4.862 4.862 0 0 0-.09-.95 2.034 2.034 0 0 1 .45-1.85 7.092 7.092 0 0 0-6.46-3.98h-8.1a7.092 7.092 0 0 0-6.46 3.98c.776.755.386 1.862.36 2.8a2.006 2.006 0 0 1-2 2c-1.988-.048-2.227-2.06-1.86-3.61A2.105 2.105 0 0 1 19 14.69v-4.03A8.675 8.675 0 0 1 27.66 2h5.6a3.376 3.376 0 0 1 3.08 2.43l1.13-.89c2.666-2.042 5.635 1.158 6.72 3.46 1.108 1.995.764 5.468.81 7.69 1.132.648 1.096 1.997 1.15 3.2Z"></path>
  <path fill="#ccdde7" d="M47 20a5.009 5.009 0 0 1-4 4.9A10.136 10.136 0 0 1 33 36h-2a10.136 10.136 0 0 1-10-11.1 5.01 5.01 0 0 1-1.92-8.94 9.02 9.02 0 0 1 8.87-6.85h8.1a9.02 9.02 0 0 1 8.87 6.85A4.992 4.992 0 0 1 47 20Z"></path>
  <path fill="#044388" d="M33 16c-.297 1.038-.33 2.679 1 3-1.755.364-2.733-1.688-3.029-3.138a1.052 1.052 0 1 1 2.03.138Z"></path>
  <path d="M45 17a1.778 1.778 0 0 0 .83-.19 4.908 4.908 0 0 0-.91-.85 9.02 9.02 0 0 0-8.87-6.85h-8.1a9.02 9.02 0 0 0-8.87 6.85 4.904 4.904 0 0 0-.91.85c-.57.37 12.796.124 12.836.19.327 1.44 1.292 3.353 2.994 3-1.33-.321-1.297-1.962-1-3Z" opacity=".1"></path>
  <rect width="28" height="7" x="18" y="9" fill="#56b5ef" rx="1"></rect>
</svg>
