<svg xmlns="http://www.w3.org/2000/svg" xmlns:xlink="http://www.w3.org/1999/xlink" viewBox="0 0 64 64" id="basketball-badge">
  <defs>
    <linearGradient id="a" x1="32" x2="32" y1="61" y2="51" gradientUnits="userSpaceOnUse">
      <stop offset="0" stop-color="#002237"></stop>
      <stop offset="1" stop-color="#003352"></stop>
    </linearGradient>
    <linearGradient xlink:href="#a" id="b" x1="28" x2="28" y1="58.4" y2="48.4"></linearGradient>
    <linearGradient xlink:href="#a" id="c" x1="24" x2="24" y1="55.8" y2="45.8"></linearGradient>
    <linearGradient xlink:href="#a" id="d" x1="20" x2="20" y1="53.2" y2="43.2"></linearGradient>
    <linearGradient xlink:href="#a" id="e" x1="16" x2="16" y1="50.6" y2="40.6"></linearGradient>
    <linearGradient xlink:href="#a" id="f" x1="12" x2="12" y1="48" y2="38"></linearGradient>
    <linearGradient xlink:href="#a" id="g" x1="36" x2="36" y1="58.4" y2="48.4"></linearGradient>
    <linearGradient xlink:href="#a" id="h" x1="40" x2="40" y1="55.8" y2="45.8"></linearGradient>
    <linearGradient xlink:href="#a" id="i" x1="44" x2="44" y1="53.2" y2="43.2"></linearGradient>
    <linearGradient xlink:href="#a" id="j" x1="48" x2="48" y1="50.6" y2="40.6"></linearGradient>
    <linearGradient xlink:href="#a" id="k" x1="52" x2="52" y1="48" y2="38"></linearGradient>
    <linearGradient id="l" x1="32" x2="32" y1="7" y2="52" gradientUnits="userSpaceOnUse">
      <stop offset="0" stop-color="#42bfff"></stop>
      <stop offset="1" stop-color="#1174ac"></stop>
    </linearGradient>
    <linearGradient id="m" x1="32" x2="32" y1="12.911" y2="39.054" gradientUnits="userSpaceOnUse">
      <stop offset="0" stop-color="#ff7047"></stop>
      <stop offset="1" stop-color="#e63811"></stop>
    </linearGradient>
    <linearGradient xlink:href="#a" id="n" x1="32.003" x2="32.003" y1="39.054" y2="12.911"></linearGradient>
    <linearGradient id="o" x1="32" x2="32" y1="3" y2="9" gradientUnits="userSpaceOnUse">
      <stop offset="0" stop-color="#ff4d6c"></stop>
      <stop offset="1" stop-color="#ff0825"></stop>
    </linearGradient>
  </defs>
  <g>
    <path fill="url(#a)" d="M31 51h2v10h-2z"></path>
    <path fill="url(#b)" d="M27 48.4h2v10h-2z"></path>
    <path fill="url(#c)" d="M23 45.8h2v10h-2z"></path>
    <path fill="url(#d)" d="M19 43.2h2v10h-2z"></path>
    <path fill="url(#e)" d="M15 40.6h2v10h-2z"></path>
    <path fill="url(#f)" d="M11 38h2v10h-2z"></path>
    <path fill="url(#g)" d="M35 48.4h2v10h-2z"></path>
    <path fill="url(#h)" d="M39 45.8h2v10h-2z"></path>
    <path fill="url(#i)" d="M43 43.2h2v10h-2z"></path>
    <path fill="url(#j)" d="M47 40.6h2v10h-2z"></path>
    <path fill="url(#k)" d="M51 38h2v10h-2z"></path>
    <path fill="url(#l)" d="M52 7H12a1 1 0 0 0-1 1v30a1 1 0 0 0 .455.838l20 13a1 1 0 0 0 1.09 0l20-13A1 1 0 0 0 53 38V8a1 1 0 0 0-1-1Z"></path>
    <path fill="url(#m)" d="M32 12.91a13.072 13.072 0 1 0 13.071 13.072A13.086 13.086 0 0 0 32 12.91Z"></path>
    <path fill="url(#n)" d="M39.192 15.079a13.048 13.048 0 0 0-2.2-1.173 13.296 13.296 0 0 0-4.675 3.451 8.888 8.888 0 0 0-1.861 4.979 24.88 24.88 0 0 0-2.847.386 18.524 18.524 0 0 1 1.824-5.594 18.863 18.863 0 0 1 2.941-4.198c-.125-.004-.248-.02-.374-.02a13.067 13.067 0 0 0-2.407.232 20.986 20.986 0 0 0-1.933 3.07 20.503 20.503 0 0 0-2.136 6.983q-.716.2-1.418.442a5.654 5.654 0 0 0-1.552-2.692 7.602 7.602 0 0 0-1.965-1.321 13.013 13.013 0 0 0-.832 1.821 5.63 5.63 0 0 1 1.41.943 3.724 3.724 0 0 1 1.065 1.987 26.117 26.117 0 0 0-3.297 1.734 13.064 13.064 0 0 0 .22 2.243 24.327 24.327 0 0 1 3.281-1.877 8.231 8.231 0 0 1-.43 2.67 11.204 11.204 0 0 1-1.575 2.901 13.086 13.086 0 0 0 1.156 1.804 15.095 15.095 0 0 0 2.222-3.817 10.486 10.486 0 0 0 .605-4.378c.321-.116.646-.222.972-.324-.001.104-.009.207-.009.311a20.79 20.79 0 0 0 4.813 13.271 13.068 13.068 0 0 0 1.81.14c.34 0 .675-.025 1.01-.05a18.868 18.868 0 0 1-4.617-7.312 18.57 18.57 0 0 1-1.015-6.049c0-.285.01-.569.023-.852a22.649 22.649 0 0 1 3.021-.44c.252 5.368 3.252 7.536 6.422 9.808.983.704 1.985 1.435 2.966 2.28a13.152 13.152 0 0 0 1.527-1.325 40.699 40.699 0 0 0-3.328-2.58c-3.085-2.212-5.387-3.877-5.592-8.255a24.602 24.602 0 0 1 6.029.816 28.198 28.198 0 0 1 6.497 2.617 13.069 13.069 0 0 0 .129-1.73c0-.161-.019-.319-.025-.479a30.138 30.138 0 0 0-6.117-2.346 26.592 26.592 0 0 0-6.463-.876 6.824 6.824 0 0 1 1.657-3.98 14.433 14.433 0 0 1 5.068-3.221Z"></path>
    <rect width="50" height="6" x="7" y="3" fill="url(#o)" rx="1"></rect>
  </g>
</svg>
