<svg xmlns="http://www.w3.org/2000/svg" enable-background="new 0 0 512 512" viewBox="0 0 512 512" id="france">
  <rect width="17.66" height="455.394" x="247.17" y="31.776" fill="#ffea2e"></rect>
  <rect width="17.66" height="52.825" x="247.17" y="460.757" fill="#ffd12e" transform="rotate(90 256 487.17)"></rect>
  <circle cx="256" cy="31.776" r="15.776" fill="#ffd12e"></circle>
  <path fill="#f7f7f7" d="M157.633,280.668V174.766c69.877-42.274,136.253-43.115,196.733,0v105.903
			C294.352,315.292,227.83,313.705,157.633,280.668z"></path>
  <rect width="196.733" height="104.182" x="157.633" y="70.583" fill="#2e4593"></rect>
  <rect width="196.733" height="104.473" x="157.633" y="280.668" fill="#f42525"></rect>
  <g>
    <circle cx="124.86" cy="69.146" r="10.682" fill="#ffea2e"></circle>
    <rect width="17.66" height="228.756" x="247.127" y="-45.232" fill="#ffd12e" transform="rotate(90 255.957 69.146)"></rect>
    <path fill="#ffd12e" d="M132.81,86.875L132.81,86.875c-2.438,0-4.415-1.977-4.415-4.415V55.833
			c0-2.438,1.977-4.415,4.415-4.415l0,0c2.438,0,4.415,1.977,4.415,4.415V82.46C137.225,84.898,135.248,86.875,132.81,86.875z"></path>
    <path fill="#ffae2e" d="M141.64,86.875L141.64,86.875c-2.438,0-4.415-1.977-4.415-4.415V55.833
			c0-2.438,1.977-4.415,4.415-4.415l0,0c2.438,0,4.415,1.977,4.415,4.415V82.46C146.055,84.898,144.078,86.875,141.64,86.875z"></path>
    <circle cx="387.14" cy="69.146" r="10.682" fill="#ffea2e"></circle>
    <path fill="#ffd12e" d="M379.19,51.418L379.19,51.418c2.438,0,4.415,1.977,4.415,4.415V82.46
			c0,2.438-1.977,4.415-4.415,4.415h0c-2.438,0-4.415-1.977-4.415-4.415V55.833C374.775,53.394,376.752,51.418,379.19,51.418z"></path>
    <path fill="#ffae2e" d="M370.36,51.418L370.36,51.418c2.438,0,4.415,1.977,4.415,4.415V82.46
			c0,2.438-1.977,4.415-4.415,4.415h0c-2.438,0-4.415-1.977-4.415-4.415V55.833C365.945,53.394,367.922,51.418,370.36,51.418z"></path>
  </g>
  <g>
    <circle cx="124.86" cy="385.141" r="10.682" fill="#ffea2e"></circle>
    <rect width="17.66" height="228.756" x="247.127" y="270.763" fill="#ffd12e" transform="rotate(90 255.957 385.141)"></rect>
    <path fill="#ffd12e" d="M132.81,402.87L132.81,402.87c-2.438,0-4.415-1.977-4.415-4.415v-26.627
			c0-2.438,1.977-4.415,4.415-4.415l0,0c2.438,0,4.415,1.977,4.415,4.415v26.627C137.225,400.893,135.248,402.87,132.81,402.87z"></path>
    <path fill="#ffae2e" d="M141.64,402.87L141.64,402.87c-2.438,0-4.415-1.977-4.415-4.415v-26.627
			c0-2.438,1.977-4.415,4.415-4.415l0,0c2.438,0,4.415,1.977,4.415,4.415v26.627C146.055,400.893,144.078,402.87,141.64,402.87z"></path>
    <circle cx="387.14" cy="385.141" r="10.682" fill="#ffea2e"></circle>
    <path fill="#ffd12e" d="M379.19,367.413L379.19,367.413c2.438,0,4.415,1.977,4.415,4.415v26.627
			c0,2.438-1.977,4.415-4.415,4.415h0c-2.438,0-4.415-1.977-4.415-4.415v-26.627C374.775,369.389,376.752,367.413,379.19,367.413z"></path>
    <path fill="#ffae2e" d="M370.36,367.413L370.36,367.413c2.438,0,4.415,1.977,4.415,4.415v26.627
			c0,2.438-1.977,4.415-4.415,4.415h0c-2.438,0-4.415-1.977-4.415-4.415v-26.627C365.945,369.389,367.922,367.413,370.36,367.413z"></path>
  </g>
</svg>
